<svg width="40" height="40" viewBox="0 0 40 40" fill="none" xmlns="http://www.w3.org/2000/svg">
<rect width="40" height="40" rx="5" fill="#191F28"/>
<g clip-path="url(#clip0_1106_6285)">
<path d="M13.2503 18.9609L14.5048 20.1565L18.47 23.7981L20.17 22.1753C20.2428 22.0719 20.2792 21.9472 20.2733 21.8209C20.2674 21.6945 20.2196 21.5738 20.1374 21.4776L18.5763 20.1303L18.5834 20.1268L16.9039 18.5217C16.8087 18.4163 16.7572 18.2786 16.76 18.1366C16.7627 17.9946 16.8195 17.859 16.9188 17.7574L21.445 13.4536L19.3951 11.5L13.2532 17.3352C13.1418 17.4394 13.0531 17.5652 12.9924 17.705C12.9317 17.8448 12.9004 17.9956 12.9004 18.1481C12.9004 18.3005 12.9317 18.4513 12.9924 18.5911C13.0531 18.7309 13.1418 18.8568 13.2532 18.9609H13.2503ZM26.7483 21.0413L25.4946 19.8435L21.5314 16.2012L19.8237 17.824C19.7469 17.9258 19.7081 18.0512 19.7139 18.1786C19.7197 18.306 19.7698 18.4273 19.8555 18.5217L21.4174 19.8612H21.4132L23.0912 21.4655C23.1855 21.5696 23.2359 21.7061 23.2321 21.8465C23.2283 21.9869 23.1705 22.1204 23.0707 22.2192L18.5437 26.5223L20.6057 28.5L26.7469 22.6648C26.8583 22.5607 26.9472 22.4349 27.0079 22.295C27.0687 22.1552 27.1 22.0044 27.1 21.8519C27.1 21.6995 27.0687 21.5487 27.0079 21.4088C26.9472 21.269 26.8583 21.1432 26.7469 21.0391L26.7483 21.0413Z" fill="white"/>
</g>
<defs>
<clipPath id="clip0_1106_6285">
<rect width="17" height="17" fill="white" transform="translate(11.5 11.5)"/>
</clipPath>
</defs>
</svg>
