<svg width="17" height="18" viewBox="0 0 17 18" fill="none" xmlns="http://www.w3.org/2000/svg">
<path d="M6.72925 8.99967C8.29183 8.99967 9.56258 7.72892 9.56258 6.16634C9.56258 4.60376 8.29183 3.33301 6.72925 3.33301C5.16666 3.33301 3.89591 4.60376 3.89591 6.16634C3.89591 7.72892 5.16666 8.99967 6.72925 8.99967ZM7.79175 9.70801H5.66675C3.32287 9.70801 1.41675 11.6141 1.41675 13.958V14.6663H12.0417V13.958C12.0417 11.6141 10.1356 9.70801 7.79175 9.70801Z" fill="black"/>
<path d="M11.7611 8.32581C12.1925 7.59062 12.3788 6.73723 12.293 5.88914C12.1662 4.62547 11.4607 3.50843 10.3076 2.74414L9.52487 3.92422C10.3175 4.44981 10.7999 5.19852 10.8835 6.03081C10.922 6.41763 10.8738 6.80817 10.7425 7.17404C10.6111 7.53992 10.3999 7.87191 10.1241 8.14589L9.27979 8.99022L10.4259 9.32668C13.4235 10.205 13.4582 13.2197 13.4582 13.2501H14.8749C14.8749 11.9829 14.1977 9.5066 11.7611 8.32581Z" fill="black"/>
</svg>
